<svg width="16" height="16" viewBox="0 0 16 16" fill="none" xmlns="http://www.w3.org/2000/svg">
<g clip-path="url(#clip0_1933_14)">
<path d="M11.4565 1.67578H5.20654C3.48065 1.67578 2.08154 3.07489 2.08154 4.80078V11.0508C2.08154 12.7767 3.48065 14.1758 5.20654 14.1758H11.4565C13.1824 14.1758 14.5815 12.7767 14.5815 11.0508V4.80078C14.5815 3.07489 13.1824 1.67578 11.4565 1.67578Z" stroke="#0C2340" stroke-linecap="round" stroke-linejoin="round"/>
<path d="M10.8318 7.53173C10.909 8.05189 10.8201 8.58312 10.5779 9.04987C10.3358 9.51661 9.95256 9.89511 9.48286 10.1315C9.01316 10.3679 8.48088 10.4502 7.96171 10.3667C7.44255 10.2831 6.96295 10.038 6.59112 9.66621C6.2193 9.29438 5.97418 8.81478 5.89064 8.29561C5.8071 7.77645 5.88939 7.24417 6.1258 6.77447C6.36222 6.30477 6.74071 5.92157 7.20746 5.67938C7.67421 5.4372 8.20544 5.34835 8.7256 5.42548C9.25618 5.50416 9.74738 5.7514 10.1267 6.13067C10.5059 6.50995 10.7532 7.00115 10.8318 7.53173Z" stroke="#0C2340" stroke-linecap="round" stroke-linejoin="round"/>
<path d="M11.769 4.48828H11.7753" stroke="#0C2340" stroke-linecap="round" stroke-linejoin="round"/>
</g>
<defs>
<clipPath id="clip0_1933_14">
<rect width="15" height="15" fill="white" transform="translate(0.831543 0.425781)"/>
</clipPath>
</defs>
</svg>
