<svg width="16" height="16" viewBox="0 0 16 16" fill="none" xmlns="http://www.w3.org/2000/svg">
<g clip-path="url(#clip0_1933_22)">
<path d="M14.9194 4.43828C14.8452 4.14166 14.694 3.86989 14.4811 3.65041C14.2682 3.43093 14.0011 3.27152 13.7069 3.18828C12.6319 2.92578 8.3319 2.92578 8.3319 2.92578C8.3319 2.92578 4.0319 2.92578 2.9569 3.21328C2.66268 3.29652 2.39564 3.45593 2.18274 3.67541C1.96985 3.89489 1.81864 4.16666 1.7444 4.46328C1.54766 5.55425 1.45142 6.66097 1.4569 7.76953C1.44989 8.88643 1.54613 10.0016 1.7444 11.1008C1.82625 11.3882 1.98084 11.6496 2.19324 11.8598C2.40564 12.07 2.66866 12.2219 2.9569 12.3008C4.0319 12.5883 8.3319 12.5883 8.3319 12.5883C8.3319 12.5883 12.6319 12.5883 13.7069 12.3008C14.0011 12.2175 14.2682 12.0581 14.4811 11.8387C14.694 11.6192 14.8452 11.3474 14.9194 11.0508C15.1146 9.96802 15.2109 8.86974 15.2069 7.76953C15.2139 6.65263 15.1177 5.53747 14.9194 4.43828V4.43828Z" stroke="#0C2340" stroke-linecap="round" stroke-linejoin="round"/>
<path d="M6.92529 9.81309L10.519 7.76934L6.92529 5.72559V9.81309Z" stroke="#0C2340" stroke-linecap="round" stroke-linejoin="round"/>
</g>
<defs>
<clipPath id="clip0_1933_22">
<rect width="15" height="15" fill="white" transform="translate(0.831543 0.425781)"/>
</clipPath>
</defs>
</svg>
