<svg width="16" height="16" viewBox="0 0 16 16" fill="none" xmlns="http://www.w3.org/2000/svg">
<g clip-path="url(#clip0_1933_19)">
<path d="M15.2065 2.30121C14.608 2.72338 13.9454 3.04628 13.244 3.25746C12.8676 2.82465 12.3674 2.51789 11.8109 2.37866C11.2545 2.23943 10.6687 2.27445 10.1328 2.47899C9.59696 2.68353 9.13682 3.04771 8.81466 3.52228C8.49249 3.99685 8.32385 4.55892 8.33154 5.13246V5.75746C7.23319 5.78594 6.14484 5.54234 5.16342 5.04836C4.18201 4.55438 3.33799 3.82535 2.70654 2.92621C2.70654 2.92621 0.206543 8.55121 5.83154 11.0512C4.54437 11.9249 3.01102 12.363 1.45654 12.3012C7.08154 15.4262 13.9565 12.3012 13.9565 5.11371C13.956 4.93962 13.9392 4.76595 13.9065 4.59496C14.5444 3.96589 14.9946 3.17165 15.2065 2.30121V2.30121Z" stroke="#0C2340" stroke-linecap="round" stroke-linejoin="round"/>
</g>
<defs>
<clipPath id="clip0_1933_19">
<rect width="15" height="15" fill="white" transform="translate(0.831543 0.425781)"/>
</clipPath>
</defs>
</svg>
