<svg width="21" height="21" viewBox="0 0 21 21" fill="none" xmlns="http://www.w3.org/2000/svg">
<g clip-path="url(#clip0_1933_6370)">
<path d="M17.832 8.83333C17.832 14.6667 10.332 19.6667 10.332 19.6667C10.332 19.6667 2.83203 14.6667 2.83203 8.83333C2.83203 6.8442 3.62221 4.93655 5.02873 3.53003C6.43525 2.1235 8.34291 1.33333 10.332 1.33333C12.3212 1.33333 14.2288 2.1235 15.6353 3.53003C17.0419 4.93655 17.832 6.8442 17.832 8.83333Z" stroke="#C8102E" stroke-width="2" stroke-linecap="round" stroke-linejoin="round"/>
<path d="M10.332 11.3333C11.7127 11.3333 12.832 10.214 12.832 8.83333C12.832 7.45262 11.7127 6.33333 10.332 6.33333C8.95132 6.33333 7.83203 7.45262 7.83203 8.83333C7.83203 10.214 8.95132 11.3333 10.332 11.3333Z" stroke="#C8102E" stroke-width="2" stroke-linecap="round" stroke-linejoin="round"/>
</g>
<defs>
<clipPath id="clip0_1933_6370">
<rect width="20" height="20" fill="white" transform="translate(0.332031 0.5)"/>
</clipPath>
</defs>
</svg>
