<svg width="25" height="24" viewBox="0 0 25 24" fill="none" xmlns="http://www.w3.org/2000/svg">
<path d="M18.5299 8C20.1868 8 21.5299 6.65685 21.5299 5C21.5299 3.34315 20.1868 2 18.5299 2C16.8731 2 15.5299 3.34315 15.5299 5C15.5299 6.65685 16.8731 8 18.5299 8Z" stroke="white" stroke-width="1.5" stroke-linecap="round" stroke-linejoin="round"/>
<path d="M6.52991 15C8.18676 15 9.52991 13.6569 9.52991 12C9.52991 10.3431 8.18676 9 6.52991 9C4.87305 9 3.52991 10.3431 3.52991 12C3.52991 13.6569 4.87305 15 6.52991 15Z" stroke="white" stroke-width="1.5" stroke-linecap="round" stroke-linejoin="round"/>
<path d="M18.5299 22C20.1868 22 21.5299 20.6569 21.5299 19C21.5299 17.3431 20.1868 16 18.5299 16C16.8731 16 15.5299 17.3431 15.5299 19C15.5299 20.6569 16.8731 22 18.5299 22Z" stroke="white" stroke-width="1.5" stroke-linecap="round" stroke-linejoin="round"/>
<path d="M9.11975 13.5098L15.9498 17.4898" stroke="white" stroke-width="1.5" stroke-linecap="round" stroke-linejoin="round"/>
<path d="M15.9398 6.50977L9.11975 10.4898" stroke="white" stroke-width="1.5" stroke-linecap="round" stroke-linejoin="round"/>
</svg>
